<?xml version="1.0" encoding="UTF-8"?>
<svg id="_图层_1" data-name="图层 1" xmlns="http://www.w3.org/2000/svg" viewBox="0 0 12.45 14.35">
  <defs>
    <style>
      .cls-1 {
        fill: #d64b56;
      }
    </style>
  </defs>
  <path id="path" class="cls-1" d="M3.52,14.35c-.95-2-.45-3.15,.3-4.2,.8-1.2,1-2.35,1-2.35,0,0,.65,.8,.4,2.1,1.1-1.25,1.3-3.25,1.15-4,2.5,1.75,3.6,5.6,2.15,8.4,7.7-4.4,1.9-10.95,.9-11.65,.35,.75,.4,2-.3,2.6C7.97,.85,5.12,0,5.12,0c.35,2.25-1.2,4.7-2.7,6.55-.05-.9-.1-1.5-.6-2.4-.1,1.65-1.35,2.95-1.7,4.6-.45,2.25,.35,3.85,3.4,5.6Z"/>
</svg>