<?xml version="1.0" encoding="utf-8"?>
<!-- Generator: Adobe Illustrator 25.2.1, SVG Export Plug-In . SVG Version: 6.00 Build 0)  -->
<svg version="1.1" id="图层_1" xmlns="http://www.w3.org/2000/svg" xmlns:xlink="http://www.w3.org/1999/xlink" x="0px" y="0px"
	 viewBox="0 0 48 48" style="enable-background:new 0 0 48 48;" xml:space="preserve">
<style type="text/css">
	.st0{fill:#FFFFFF;}
	.st1{clip-path:url(#SVGID_2_);}
	.st2{clip-path:url(#SVGID_4_);}
	.st3{fill:none;stroke:#1F2226;stroke-width:1.5;}
	.st4{fill-rule:evenodd;clip-rule:evenodd;fill:#1F2226;}
</style>
<desc>Created with Pixso.</desc>
<g id="画板_228">
	<path class="st0" d="M8,0h32c4.42,0,8,3.58,8,8v32c0,4.42-3.58,8-8,8H8c-4.42,0-8-3.58-8-8V8C0,3.58,3.58,0,8,0z"/>
	<g>
		<defs>
			<path id="SVGID_1_" d="M8,0h32c4.42,0,8,3.58,8,8v32c0,4.42-3.58,8-8,8H8c-4.42,0-8-3.58-8-8V8C0,3.58,3.58,0,8,0z"/>
		</defs>
		<clipPath id="SVGID_2_">
			<use xlink:href="#SVGID_1_"  style="overflow:visible;"/>
		</clipPath>
		<g class="st1">
			<g id="Linear__x2F__Notifications__x2F__Bell">
				<g>
					<defs>
						<path id="SVGID_3_" d="M15.31,11h17.37c2.38,0,4.31,1.93,4.31,4.31v17.37c0,2.38-1.93,4.31-4.31,4.31H15.31
							C12.93,37,11,35.07,11,32.69V15.31C11,12.93,12.93,11,15.31,11z"/>
					</defs>
					<clipPath id="SVGID_4_">
						<use xlink:href="#SVGID_3_"  style="overflow:visible;"/>
					</clipPath>
					<g class="st2">
						<g id="Vector">
							<path class="st3" d="M30.07,22.01c0,0.73,0.22,1.45,0.62,2.06l1,1.49c0.91,1.36,0.22,3.22-1.37,3.65
								c-4.14,1.13-8.5,1.13-12.64,0c-1.58-0.43-2.28-2.29-1.37-3.65l1-1.49c0.41-0.61,0.62-1.33,0.62-2.06V21.4
								c0-3.35,2.72-6.07,6.07-6.07c3.35,0,6.07,2.72,6.07,6.07V22.01z"/>
						</g>
						<g id="Vector_1_">
							<path class="st4" d="M20.11,31.58c-0.31-0.38-0.54-0.8-0.71-1.25c-0.15-0.39,0.05-0.82,0.44-0.97
								c0.39-0.15,0.82,0.05,0.97,0.44c0.11,0.3,0.27,0.58,0.48,0.84c0.21,0.26,0.45,0.48,0.73,0.67c0.28,0.19,0.59,0.34,0.92,0.44
								c0.34,0.11,0.7,0.16,1.07,0.16s0.72-0.05,1.07-0.16c0.33-0.1,0.64-0.25,0.92-0.44c0.28-0.19,0.52-0.41,0.73-0.67
								c0.21-0.26,0.37-0.54,0.48-0.84c0.15-0.39,0.57-0.59,0.97-0.44c0.39,0.15,0.59,0.57,0.44,0.97
								c-0.17,0.45-0.41,0.87-0.71,1.25c-0.3,0.38-0.65,0.7-1.06,0.98c-0.41,0.28-0.85,0.49-1.32,0.63
								c-0.49,0.15-0.99,0.23-1.51,0.23s-1.02-0.08-1.51-0.23c-0.47-0.15-0.92-0.36-1.32-0.63C20.76,32.28,20.41,31.96,20.11,31.58
								L20.11,31.58z"/>
						</g>
					</g>
				</g>
			</g>
		</g>
	</g>
</g>
</svg>
