<?xml version="1.0" encoding="utf-8"?>
<!-- Generator: Adobe Illustrator 25.2.1, SVG Export Plug-In . SVG Version: 6.00 Build 0)  -->
<svg version="1.1" id="图层_1" xmlns="http://www.w3.org/2000/svg" xmlns:xlink="http://www.w3.org/1999/xlink" x="0px" y="0px"
	 viewBox="0 0 48 48" style="enable-background:new 0 0 48 48;" xml:space="preserve">
<style type="text/css">
	.st0{fill:#FFFFFF;}
	.st1{clip-path:url(#SVGID_2_);}
	.st2{clip-path:url(#SVGID_4_);}
</style>
<desc>Created with Pixso.</desc>
<g id="画板_230">
	<path class="st0" d="M8,0h32c4.42,0,8,3.58,8,8v32c0,4.42-3.58,8-8,8H8c-4.42,0-8-3.58-8-8V8C0,3.58,3.58,0,8,0z"/>
	<g>
		<defs>
			<path id="SVGID_1_" d="M8,0h32c4.42,0,8,3.58,8,8v32c0,4.42-3.58,8-8,8H8c-4.42,0-8-3.58-8-8V8C0,3.58,3.58,0,8,0z"/>
		</defs>
		<clipPath id="SVGID_2_">
			<use xlink:href="#SVGID_1_"  style="overflow:visible;"/>
		</clipPath>
		<g class="st1">
			<g id="svg">
				<g>
					<defs>
						<rect id="SVGID_3_" x="9" y="9" width="30" height="30"/>
					</defs>
					<clipPath id="SVGID_4_">
						<use xlink:href="#SVGID_3_"  style="overflow:visible;"/>
					</clipPath>
					<g class="st2">
						<g id="path">
							<path d="M31.8,23.87c0.04,4.33,3.79,5.76,3.84,5.78c-0.03,0.1-0.6,2.05-1.98,4.07c-1.19,1.74-2.43,3.48-4.38,3.51
								c-1.91,0.04-2.53-1.13-4.72-1.13c-2.19,0-2.87,1.1-4.68,1.17c-1.88,0.07-3.31-1.88-4.51-3.62
								c-2.45-3.55-4.33-10.03-1.81-14.4c1.25-2.17,3.49-3.55,5.91-3.58c1.85-0.04,3.59,1.24,4.72,1.24c1.13,0,3.25-1.54,5.47-1.31
								c0.93,0.04,3.55,0.38,5.23,2.84C34.75,18.51,31.77,20.25,31.8,23.87L31.8,23.87 M28.2,13.25c1-1.21,1.67-2.89,1.49-4.56
								c-1.44,0.06-3.18,0.96-4.21,2.17c-0.92,1.07-1.73,2.78-1.52,4.42C25.57,15.39,27.21,14.45,28.2,13.25L28.2,13.25z"/>
						</g>
					</g>
				</g>
			</g>
		</g>
	</g>
</g>
</svg>
