<?xml version="1.0" standalone="no"?><!DOCTYPE svg PUBLIC "-//W3C//DTD SVG 1.1//EN" "http://www.w3.org/Graphics/SVG/1.1/DTD/svg11.dtd"><svg t="1691000814418" class="icon" viewBox="0 0 1024 1024" version="1.1" xmlns="http://www.w3.org/2000/svg" p-id="7777" xmlns:xlink="http://www.w3.org/1999/xlink" width="200" height="200"><path d="M512 132.887273c161.28 0 257.861818 28.858182 302.545455 46.545454v349.090909a245.061818 245.061818 0 0 1-35.84 129.629091A527.825455 527.825455 0 0 1 512 873.192727a527.825455 527.825455 0 0 1-266.705455-214.109091A245.061818 245.061818 0 0 1 209.454545 529.454545v-349.090909c45.149091-18.385455 141.498182-46.545455 302.545455-46.545454m0-69.818182C245.992727 63.069091 139.636364 136.843636 139.636364 136.843636v392.610909a315.810909 315.810909 0 0 0 46.545454 166.4 602.298182 602.298182 0 0 0 325.818182 251.578182A602.298182 602.298182 0 0 0 837.818182 695.854545a315.810909 315.810909 0 0 0 46.545454-166.4V136.843636s-106.356364-73.774545-372.363636-73.774545z" fill="#2969FF" p-id="7778"></path><path d="M468.247273 586.705455A34.676364 34.676364 0 0 1 442.181818 529.221818l159.883637-186.181818a34.909091 34.909091 0 0 1 53.061818 46.545455l-160.116364 186.181818a33.978182 33.978182 0 0 1-26.763636 10.938182z" fill="#2969FF" p-id="7779"></path><path d="M468.247273 586.705455a33.745455 33.745455 0 0 1-21.410909-7.447273l-72.843637-57.250909a34.909091 34.909091 0 0 1 43.287273-54.923637l72.610909 57.483637a34.676364 34.676364 0 0 1 5.818182 48.872727 34.210909 34.210909 0 0 1-27.461818 13.265455z" fill="#2969FF" p-id="7780"></path></svg>