<?xml version="1.0" standalone="no"?><!DOCTYPE svg PUBLIC "-//W3C//DTD SVG 1.1//EN" "http://www.w3.org/Graphics/SVG/1.1/DTD/svg11.dtd"><svg t="1685599062176" class="icon" viewBox="0 0 1024 1024" version="1.1" xmlns="http://www.w3.org/2000/svg" p-id="2457" xmlns:xlink="http://www.w3.org/1999/xlink" width="200" height="200"><path d="M954.068 405.948c-17.422-24.39-123.693-167.248-123.693-167.248v0c-76.655-87.108-188.154-141.115-313.589-141.115-162.022 0-301.395 92.334-372.822 226.481h-1.743c-6.968 10.454-19.164 19.164-33.101 19.164-22.648 0-40.070-17.422-40.070-40.070 0-5.225 1.743-12.196 3.485-15.679v0c85.366-163.763 252.614-273.52 444.251-273.52 146.341 0 277.004 62.718 369.339 163.763l27.875-29.617c17.422-33.101 22.648-52.265 38.329-52.265s12.196 13.936 19.164 52.265l12.196 226.481c6.968 73.172-20.906 41.813-29.617 31.359v0zM678.806 555.775c22.648 0 40.070 17.422 40.070 40.070s-17.422 40.070-40.070 40.070h-121.951v94.076c0 22.648-17.422 40.070-40.070 40.070s-40.070-17.422-40.070-40.070v-92.334h-121.951c-22.649 0-40.070-17.422-40.070-40.070s17.422-40.070 40.070-40.070h121.951v-54.008h-121.951c-22.649 0-40.070-17.422-40.070-40.070s17.422-40.070 40.070-40.070h95.819l-95.819-95.819c-15.679-15.679-17.422-33.101 0-57.492 13.936-17.422 41.813 10.454 57.492 27.875l106.272 83.623 106.272-83.623c15.679-15.679 41.813-43.554 57.492-27.875 24.39 26.133 15.679 41.813 0 57.492l-95.819 95.819h92.333c22.648 0 40.070 17.422 40.070 40.070s-17.422 40.070-40.070 40.070h-121.951v54.008h121.951v-1.743zM136.992 702.116v0c3.485 6.968 10.454 10.454 12.196 17.422 27.875 38.329 52.265 74.912 52.265 74.912v0c76.655 87.108 188.154 141.115 313.589 141.115 160.28 0 301.395-90.592 371.082-222.997v0c6.968-12.196 19.164-20.906 34.843-20.906 22.648 0 40.070 17.422 40.070 40.070 0 8.711-3.485 15.679-8.711 22.648h1.743c-85.366 155.051-250.871 261.325-440.769 261.325-146.341 0-277.004-62.718-369.339-163.763l-27.875 29.617c-17.422 33.101-22.648 52.265-38.329 52.265s-12.196-13.936-19.164-52.265l-12.196-226.481c-6.968-73.172 20.906-41.813 29.617-31.359 10.454 12.196 34.843 45.296 60.975 78.397v0zM136.992 702.116z" fill="#272636" p-id="2458"></path></svg>