<?xml version="1.0" standalone="no"?><!DOCTYPE svg PUBLIC "-//W3C//DTD SVG 1.1//EN" "http://www.w3.org/Graphics/SVG/1.1/DTD/svg11.dtd"><svg t="1689651159592" class="icon" viewBox="0 0 1024 1024" version="1.1" xmlns="http://www.w3.org/2000/svg" p-id="1137" xmlns:xlink="http://www.w3.org/1999/xlink" width="200" height="200"><path d="M615.61 103.03c73.74 51.34 112.63 132.56 111.51 224.39-0.23 18.85-16.14 33.72-34.97 32.96l-0.96-0.04c-18.2-0.74-32.45-15.84-32.25-34.06 0.78-69.58-27.75-129.17-82.28-167.24-12.74-8.89-17.61-25.44-11.87-39.88 0.12-0.31 0.25-0.63 0.38-0.94 8-20.12 32.67-27.56 50.44-15.19zM273.13 163.56c1.6 0 3 0.18 4.18 0.55 22.11 6.88 65.24 35.91 107.72 83.4 18.95 21.19 34.55 42.6 45.13 61.94 11.09 20.28 12.53 30.66 12.72 33.18-1.09 3.14-6.1 13.28-28.89 39.82-2.48 2.89-5.12 5.91-7.84 8.96l-6.78 7.53c-6.17 6.79-11.49 12.47-21.77 23.27l-0.04 0.05-0.04 0.05-4.37 4.6-8.68 9.15c-13.83 14.57-17.2 36.18-8.46 54.26l5.48 11.35 0.16 0.33 0.26 0.54 0.27 0.54c2.28 4.5 4.76 8.98 7.39 13.29 13.35 22.04 32.07 44.73 45.44 59.89l0.15 0.17 0.15 0.17 4.88 5.46 0.13 0.15 0.13 0.15 0.08 0.09c6.6 7.3 13.57 14.26 20.86 20.87l0.31 0.28 0.03 0.02 0.08 0.07 0.15 0.13 5.46 4.88 0.17 0.15 0.17 0.15c15.16 13.37 37.85 32.09 59.89 45.44 4.31 2.62 8.78 5.11 13.29 7.39l0.55 0.28 0.55 0.27 0.33 0.16 11.35 5.48c18.09 8.73 39.68 5.35 54.25-8.47l9.14-8.68 4.6-4.37 0.05-0.04 0.05-0.04c10.79-10.28 16.48-15.6 23.27-21.77l7.53-6.78c3.06-2.72 6.07-5.36 8.93-7.82 26.57-22.81 36.71-27.82 39.85-28.91 2.53 0.19 13.28 1.67 34.34 13.36 19.32 10.73 40.64 26.38 61.65 45.27 46.99 42.24 75.71 85.04 82.53 106.94 1.31 4.22 0.53 13.01-5.61 25-7.21 14.09-19.78 28.17-33.64 37.67-49.39 33.88-104.33 51.06-163.32 51.06-107.43 0-225.61-57.16-332.81-160.95-81.16-83.82-134.11-174.43-153.13-262.09-9.16-42.22-10.29-83.29-3.33-122.08 7.11-39.63 22.77-77.3 46.56-111.98 16.86-24.57 43.49-39.78 58.5-39.78m0.01-66.56c-42.34 0-87.29 30.63-113.4 68.7C40.62 339.32 97.39 560.8 277.02 746.12l-0.02 0.02c0.15 0.14 0.29 0.28 0.44 0.42 0.14 0.15 0.28 0.29 0.42 0.44l0.02-0.02C396.86 862.31 530.77 927 657.33 927c70.56 0 138.82-20.1 200.97-62.74 45.38-31.12 80.19-89.02 65.15-137.35-25.27-81.24-164.72-212.38-242.65-212.38-2.65 0-5.22 0.15-7.72 0.46-21.33 2.67-43.48 17.55-74.91 44.53-3.25 2.8-6.58 5.71-9.98 8.74l-7.74 6.98c-7.56 6.87-13.87 12.79-24.55 22.97l-4.6 4.37-0.33-0.16c-2.98-1.5-5.89-3.12-8.74-4.86-14.07-8.51-31.73-21.99-50.45-38.49l-5.46-4.88c-0.03-0.03-0.06-0.05-0.09-0.08a228.988 228.988 0 0 1-16.34-16.34c-0.03-0.03-0.05-0.06-0.08-0.09l-4.88-5.46c-16.5-18.71-29.98-36.38-38.49-50.45-1.73-2.85-3.35-5.76-4.86-8.74l-0.16-0.33 4.37-4.6c10.18-10.69 16.1-17 22.97-24.55l6.98-7.74c3.03-3.4 5.94-6.73 8.74-9.98 26.99-31.44 41.87-53.59 44.53-74.91 9.43-76.04-127.92-224.23-211.92-250.37-7.79-2.42-15.83-3.55-23.95-3.55z" p-id="1138" fill="#2969FF"></path></svg>