<svg width="20.000000" height="20.000000" viewBox="0 0 20 20" fill="none" xmlns="http://www.w3.org/2000/svg" xmlns:xlink="http://www.w3.org/1999/xlink">
	<desc>
			Created with Pixso.
	</desc>
	<defs>
		<clipPath id="clip9_1701">
			<rect id="分享" width="20.000000" height="20.000000" fill="white"/>
		</clipPath>
	</defs>
	<g clip-path="url(#clip9_1701)">
		<path id="path" d="M18.5227 9.14771C18.054 9.14771 17.6705 9.53125 17.6705 10C17.6705 14.2188 14.2188 17.6704 10 17.6704C5.78125 17.6704 2.32954 14.2188 2.32954 10C2.32954 5.78125 5.78125 2.32959 10 2.32959C10.4688 2.32959 10.8523 1.94604 10.8523 1.47729C10.8523 1.00854 10.4688 0.625 10 0.625C4.84375 0.625 0.625 4.84375 0.625 10C0.625 15.1562 4.84375 19.375 10 19.375C15.1562 19.375 19.375 15.1562 19.375 10C19.375 9.53125 18.9915 9.14771 18.5227 9.14771Z" fill-rule="nonzero" fill="#2C2C2C"/>
		<path id="path" d="M13.75 3.18188L15.4119 3.3949L9.4034 9.40344C9.06249 9.74438 9.06249 10.2557 9.4034 10.5967C9.57386 10.7671 9.78693 10.8523 9.99999 10.8523C10.2131 10.8523 10.4261 10.7671 10.5966 10.5967L16.6051 4.58813L16.8182 6.25C16.8608 6.67615 17.2443 7.01709 17.6704 7.01709L17.7983 7.01709C18.267 6.97449 18.6079 6.54834 18.5227 6.07959L18.1818 3.30969C18.0966 2.5426 17.4574 1.90344 16.6903 1.81824L13.9204 1.47729C13.4517 1.43469 13.0256 1.73303 12.9829 2.20178C12.9403 2.67053 13.2812 3.09668 13.75 3.18188Z" fill-rule="nonzero" fill="#2C2C2C"/>
	</g>
</svg>
