<svg width="20.000000" height="20.000000" viewBox="0 0 20 20" fill="none" xmlns="http://www.w3.org/2000/svg" xmlns:xlink="http://www.w3.org/1999/xlink">
	<desc>
			Created with Pixso.
	</desc>
	<defs>
		<clipPath id="clip9_1697">
			<rect id=" 收藏2小" width="20.000000" height="20.000000" fill="white"/>
		</clipPath>
	</defs>
	<g clip-path="url(#clip9_1697)">
		<path id="path" d="M5.52278 11.9225L1.96278 7.84998L7.23361 6.65002L10.0003 2.005L12.7661 6.65161L18.0361 7.85083L14.4761 11.9233L15.0094 17.7975C15.0597 18.3508 15.3615 18.6024 15.9149 18.5521C16.4682 18.5018 16.7197 18.2 16.6694 17.6467L16.2003 12.4825L19.6111 8.58167C20.3561 7.72913 19.9861 6.58496 18.8803 6.33337L13.832 5.18506L11.1819 0.731689C10.6011 -0.242554 9.39862 -0.243286 8.81778 0.731689L6.16695 5.1842L1.11862 6.33252C0.0186157 6.58337 -0.358047 7.72754 0.387787 8.58081L3.79861 12.4817L3.32945 17.6459C3.22694 18.7742 4.19945 19.4825 5.24112 19.035L10.3286 16.8517C10.8524 16.6377 11.0025 16.2708 10.779 15.751C10.5554 15.2313 10.1859 15.0879 9.67029 15.3208L5.03362 17.3108L5.52278 11.9225Z" fill-rule="nonzero" fill="#2C2C2C"/>
	</g>
</svg>
