<?xml version="1.0" encoding="utf-8"?>
<!-- Generator: Adobe Illustrator 25.2.1, SVG Export Plug-In . SVG Version: 6.00 Build 0)  -->
<svg version="1.1" id="图层_1" xmlns="http://www.w3.org/2000/svg" xmlns:xlink="http://www.w3.org/1999/xlink" x="0px" y="0px"
	 viewBox="0 0 28 28" style="enable-background:new 0 0 28 28;" xml:space="preserve">
<style type="text/css">
	.st0{clip-path:url(#SVGID_2_);}
	.st1{fill-rule:evenodd;clip-rule:evenodd;fill:#1F2226;opacity:0.5;}
</style>
<desc>Created with Pixso.</desc>
<g id="Bold__x2F__Essentional_x2C__UI__x2F__Home">
	<g>
		<defs>
			<rect id="SVGID_1_" width="28" height="28"/>
		</defs>
		<clipPath id="SVGID_2_">
			<use xlink:href="#SVGID_1_"  style="overflow:visible;"/>
		</clipPath>
		<g class="st0">
			<g id="Vector">
				<path class="st1" d="M5.15,10.1c-0.48,0.89-0.48,1.95-0.48,4.09v1.42c0,3.64,0,5.46,1.09,6.59c1.09,1.13,2.85,1.13,6.37,1.13
					h3.73c3.52,0,5.28,0,6.37-1.13c1.09-1.13,1.09-2.95,1.09-6.59v-1.42c0-2.14,0-3.2-0.48-4.09c-0.48-0.89-1.37-1.43-3.14-2.53
					l-1.87-1.16C15.97,5.25,15.03,4.67,14,4.67s-1.97,0.58-3.84,1.74L8.29,7.57C6.52,8.67,5.64,9.22,5.15,10.1z M11.2,18.9
					c-0.39,0-0.7,0.31-0.7,0.7s0.31,0.7,0.7,0.7h5.6c0.39,0,0.7-0.31,0.7-0.7s-0.31-0.7-0.7-0.7H11.2z"/>
			</g>
		</g>
	</g>
</g>
</svg>
