<?xml version="1.0" encoding="utf-8"?>
<!-- Generator: Adobe Illustrator 25.2.1, SVG Export Plug-In . SVG Version: 6.00 Build 0)  -->
<svg version="1.1" id="图层_1" xmlns="http://www.w3.org/2000/svg" xmlns:xlink="http://www.w3.org/1999/xlink" x="0px" y="0px"
	 viewBox="0 0 48 48" style="enable-background:new 0 0 48 48;" xml:space="preserve">
<style type="text/css">
	.st0{fill:#5865F2;}
	.st1{clip-path:url(#SVGID_2_);}
	.st2{clip-path:url(#SVGID_4_);}
	.st3{fill:#FFFFFF;}
</style>
<desc>Created with Pixso.</desc>
<g id="画板_230">
	<path class="st0" d="M8,0h32c4.42,0,8,3.58,8,8v32c0,4.42-3.58,8-8,8H8c-4.42,0-8-3.58-8-8V8C0,3.58,3.58,0,8,0z"/>
	<g>
		<defs>
			<path id="SVGID_1_" d="M8,0h32c4.42,0,8,3.58,8,8v32c0,4.42-3.58,8-8,8H8c-4.42,0-8-3.58-8-8V8C0,3.58,3.58,0,8,0z"/>
		</defs>
		<clipPath id="SVGID_2_">
			<use xlink:href="#SVGID_1_"  style="overflow:visible;"/>
		</clipPath>
		<g class="st1">
			<g id="svg">
				<g>
					<defs>
						<rect id="SVGID_3_" x="9" y="9" width="30" height="30"/>
					</defs>
					<clipPath id="SVGID_4_">
						<use xlink:href="#SVGID_3_"  style="overflow:visible;"/>
					</clipPath>
					<g class="st2">
						<g id="path">
							<path class="st3" d="M33.52,15.12c-1.78-0.83-3.67-1.43-5.66-1.78c-0.24,0.44-0.53,1.03-0.72,1.51
								c-2.11-0.32-4.2-0.32-6.27,0c-0.2-0.47-0.49-1.06-0.73-1.51c-1.99,0.34-3.89,0.95-5.66,1.78
								c-3.58,5.41-4.55,10.69-4.07,15.89c2.38,1.77,4.68,2.85,6.94,3.56c0.56-0.77,1.06-1.59,1.49-2.45
								c-0.82-0.31-1.6-0.69-2.34-1.14c0.2-0.15,0.39-0.3,0.57-0.45c4.51,2.11,9.42,2.11,13.88,0c0.19,0.16,0.38,0.31,0.57,0.45
								c-0.74,0.45-1.53,0.83-2.34,1.14c0.43,0.86,0.93,1.68,1.49,2.45c2.27-0.71,4.57-1.78,6.94-3.56
								C38.17,24.98,36.62,19.75,33.52,15.12L33.52,15.12 M19.44,27.81c-1.35,0-2.47-1.26-2.47-2.81c0-1.54,1.09-2.81,2.47-2.81
								c1.38,0,2.49,1.26,2.47,2.81C21.91,26.55,20.82,27.81,19.44,27.81L19.44,27.81 M28.56,27.81c-1.35,0-2.47-1.26-2.47-2.81
								c0-1.54,1.09-2.81,2.47-2.81c1.38,0,2.49,1.26,2.47,2.81C31.02,26.55,29.93,27.81,28.56,27.81L28.56,27.81z"/>
						</g>
					</g>
				</g>
			</g>
		</g>
	</g>
</g>
</svg>
