<?xml version="1.0" encoding="utf-8"?>
<!-- Generator: Adobe Illustrator 25.2.1, SVG Export Plug-In . SVG Version: 6.00 Build 0)  -->
<svg version="1.1" id="图层_1" xmlns="http://www.w3.org/2000/svg" xmlns:xlink="http://www.w3.org/1999/xlink" x="0px" y="0px"
	 viewBox="0 0 48 48" style="enable-background:new 0 0 48 48;" xml:space="preserve">
<style type="text/css">
	.st0{fill:#FFFFFF;}
	.st1{clip-path:url(#SVGID_2_);}
	.st2{clip-path:url(#SVGID_4_);}
	.st3{fill-rule:evenodd;clip-rule:evenodd;fill:url(#SVGID_5_);}
	.st4{fill-rule:evenodd;clip-rule:evenodd;fill:url(#SVGID_6_);}
	.st5{fill:url(#SVGID_7_);}
</style>
<desc>Created with Pixso.</desc>
<g id="画板_230">
	<path class="st0" d="M8,0h32c4.42,0,8,3.58,8,8v32c0,4.42-3.58,8-8,8H8c-4.42,0-8-3.58-8-8V8C0,3.58,3.58,0,8,0z"/>
	<g>
		<defs>
			<path id="SVGID_1_" d="M8,0h32c4.42,0,8,3.58,8,8v32c0,4.42-3.58,8-8,8H8c-4.42,0-8-3.58-8-8V8C0,3.58,3.58,0,8,0z"/>
		</defs>
		<clipPath id="SVGID_2_">
			<use xlink:href="#SVGID_1_"  style="overflow:visible;"/>
		</clipPath>
		<g class="st1">
			<g id="svg">
				<g>
					<defs>
						<rect id="SVGID_3_" x="9" y="9" width="30" height="30"/>
					</defs>
					<clipPath id="SVGID_4_">
						<use xlink:href="#SVGID_3_"  style="overflow:visible;"/>
					</clipPath>
					<g class="st2">
						<g id="组合_2">
							<g id="path">
								
									<linearGradient id="SVGID_5_" gradientUnits="userSpaceOnUse" x1="286.2755" y1="-364.6135" x2="310.9755" y2="-380.2242" gradientTransform="matrix(1 0 0 -1 -273.6378 -346.9449)">
									<stop  offset="0" style="stop-color:#3182F3"/>
									<stop  offset="0.136" style="stop-color:#0164E0"/>
									<stop  offset="0.5594" style="stop-color:#0869E1"/>
									<stop  offset="0.9688" style="stop-color:#307FEF"/>
								</linearGradient>
								<path class="st3" d="M17.68,14.74c-0.72,0.07-1.38,0.26-2.02,0.58c-2.55,1.28-4.59,4.58-5.3,8.56
									c-0.13,0.72-0.2,1.34-0.24,2.11c-0.03,0.54-0.01,1.62,0.03,2.03c0.19,1.68,0.72,2.96,1.6,3.88
									c0.51,0.53,1.08,0.89,1.77,1.12c0.54,0.18,1.02,0.25,1.65,0.25c1.21,0,2.1-0.31,3.04-1.05c0.44-0.35,1.11-1.06,1.6-1.71
									c0.87-1.15,1.44-2.06,3.26-5.27l1-1.77l0.22,0.36c0.28,0.46,1.29,2.14,1.9,3.16c1.52,2.56,2.41,3.8,3.36,4.74
									c0.95,0.93,1.83,1.38,2.99,1.51c0.31,0.04,0.95,0.04,1.24,0.01c0.8-0.09,1.52-0.36,2.11-0.81c0.2-0.15,0.57-0.51,0.74-0.72
									c0.68-0.84,1.13-2.04,1.31-3.44c0.13-1.07,0.12-2.41-0.04-3.69c-0.46-3.72-2.08-6.96-4.33-8.65
									c-1.35-1.01-2.88-1.41-4.32-1.12c-1.51,0.3-2.97,1.43-4.54,3.48c-0.11,0.15-0.22,0.28-0.23,0.3
									c-0.02,0.02-0.07-0.03-0.26-0.26c-2.05-2.53-3.89-3.63-6.05-3.62C17.93,14.73,17.72,14.73,17.68,14.74L17.68,14.74
									 M30.56,17.18c0.73,0.16,1.39,0.56,2.04,1.23c0.44,0.45,0.78,0.92,1.12,1.53c0.89,1.6,1.4,3.5,1.59,5.83
									c0.04,0.52,0.03,1.81-0.01,2.14c-0.18,1.35-0.68,2.09-1.55,2.31c-0.25,0.06-0.71,0.07-0.95,0.01
									c-0.65-0.15-1.1-0.53-1.87-1.57c-0.56-0.75-1.76-2.64-3.1-4.88c-1.02-1.71-1.37-2.26-1.88-3.03l-0.14-0.22l0.24-0.36
									c1.22-1.83,2.26-2.76,3.35-3c0.17-0.04,0.25-0.04,0.61-0.03C30.28,17.14,30.46,17.15,30.56,17.18L30.56,17.18 M18.53,17.79
									c0.82,0.11,1.51,0.51,2.34,1.33c0.49,0.49,0.96,1.05,1.51,1.83l0.24,0.33l-0.07,0.11c-0.04,0.06-0.31,0.47-0.6,0.92
									c-0.71,1.09-1.34,2.07-2.02,3.15c-0.74,1.16-0.93,1.46-1.35,2.07c-1.19,1.73-1.9,2.43-2.66,2.65
									c-0.58,0.17-1.18,0.11-1.64-0.17c-0.17-0.1-0.46-0.38-0.59-0.58c-0.29-0.43-0.47-1.02-0.56-1.74c-0.03-0.3-0.03-1.3,0-1.72
									c0.23-2.93,1.24-5.61,2.68-7.08c0.67-0.68,1.28-1.02,2.03-1.12C17.95,17.75,18.35,17.77,18.53,17.79L18.53,17.79z"/>
							</g>
							<g id="path_1_">
								
									<radialGradient id="SVGID_6_" cx="40.6894" cy="67.164" r="1.0007" gradientTransform="matrix(6.108587e-16 9.9761 15.0085 -9.190057e-16 -983.9884 -384.3408)" gradientUnits="userSpaceOnUse">
									<stop  offset="0" style="stop-color:#3183F3"/>
									<stop  offset="1" style="stop-color:#3183F3"/>
								</radialGradient>
								<path class="st4" d="M17.68,14.74c-0.72,0.07-1.38,0.26-2.02,0.58c-2.55,1.28-4.59,4.58-5.3,8.56
									c-0.13,0.72-0.2,1.34-0.24,2.11c-0.03,0.54-0.01,1.62,0.03,2.03c0.19,1.68,0.72,2.96,1.6,3.88
									c0.51,0.53,1.08,0.89,1.77,1.12c0.54,0.18,1.02,0.25,1.65,0.25c1.21,0,2.1-0.31,3.04-1.05c0.44-0.35,1.11-1.06,1.6-1.71
									c0.87-1.15,1.44-2.06,3.26-5.27l1-1.77l0.22,0.36c0.28,0.46,1.29,2.14,1.9,3.16c1.52,2.56,2.41,3.8,3.36,4.74
									c0.95,0.93,1.83,1.38,2.99,1.51c0.31,0.04,0.95,0.04,1.24,0.01c0.8-0.09,1.52-0.36,2.11-0.81c0.2-0.15,0.57-0.51,0.74-0.72
									c0.68-0.84,1.13-2.04,1.31-3.44c0.13-1.07,0.12-2.41-0.04-3.69c-0.46-3.72-2.08-6.96-4.33-8.65
									c-1.35-1.01-2.88-1.41-4.32-1.12c-1.51,0.3-2.97,1.43-4.54,3.48c-0.11,0.15-0.22,0.28-0.23,0.3
									c-0.02,0.02-0.07-0.03-0.26-0.26c-2.05-2.53-3.89-3.63-6.05-3.62C17.93,14.73,17.72,14.73,17.68,14.74L17.68,14.74
									 M30.56,17.18c0.73,0.16,1.39,0.56,2.04,1.23c0.44,0.45,0.78,0.92,1.12,1.53c0.89,1.6,1.4,3.5,1.59,5.83
									c0.04,0.52,0.03,1.81-0.01,2.14c-0.18,1.35-0.68,2.09-1.55,2.31c-0.25,0.06-0.71,0.07-0.95,0.01
									c-0.65-0.15-1.1-0.53-1.87-1.57c-0.56-0.75-1.76-2.64-3.1-4.88c-1.02-1.71-1.37-2.26-1.88-3.03l-0.14-0.22l0.24-0.36
									c1.22-1.83,2.26-2.76,3.35-3c0.17-0.04,0.25-0.04,0.61-0.03C30.28,17.14,30.46,17.15,30.56,17.18L30.56,17.18 M18.53,17.79
									c0.82,0.11,1.51,0.51,2.34,1.33c0.49,0.49,0.96,1.05,1.51,1.83l0.24,0.33l-0.07,0.11c-0.04,0.06-0.31,0.47-0.6,0.92
									c-0.71,1.09-1.34,2.07-2.02,3.15c-0.74,1.16-0.93,1.46-1.35,2.07c-1.19,1.73-1.9,2.43-2.66,2.65
									c-0.58,0.17-1.18,0.11-1.64-0.17c-0.17-0.1-0.46-0.38-0.59-0.58c-0.29-0.43-0.47-1.02-0.56-1.74c-0.03-0.3-0.03-1.3,0-1.72
									c0.23-2.93,1.24-5.61,2.68-7.08c0.67-0.68,1.28-1.02,2.03-1.12C17.95,17.75,18.35,17.77,18.53,17.79L18.53,17.79z"/>
							</g>
							<g id="path_2_">
								
									<linearGradient id="SVGID_7_" gradientUnits="userSpaceOnUse" x1="292.5323" y1="-362.7514" x2="300.0328" y2="-370.5013" gradientTransform="matrix(1 0 0 -1 -273.6378 -346.9449)">
									<stop  offset="0" style="stop-color:#3183F3"/>
									<stop  offset="0.6608" style="stop-color:#2669D9"/>
									<stop  offset="1" style="stop-color:#3183F3"/>
								</linearGradient>
								<path class="st5" d="M27.03,22.49c-3.53-5.75-5.89-7.76-8.92-7.76l-0.04,3.02c1.99,0,3.53,1.57,6.88,7.21l0.2,0.34
									L27.03,22.49z"/>
							</g>
						</g>
					</g>
				</g>
			</g>
		</g>
	</g>
</g>
</svg>
