<?xml version="1.0" standalone="no"?><!DOCTYPE svg PUBLIC "-//W3C//DTD SVG 1.1//EN" "http://www.w3.org/Graphics/SVG/1.1/DTD/svg11.dtd"><svg t="1678425555395" class="icon" viewBox="0 0 1024 1024" version="1.1" xmlns="http://www.w3.org/2000/svg" p-id="3425" xmlns:xlink="http://www.w3.org/1999/xlink" width="200" height="200"><path d="M853.333333 170.666667a85.333333 85.333333 0 0 1 85.333334 85.333333v426.666667a85.333333 85.333333 0 0 1-85.333334 85.333333H576v42.666667h74.666667a32 32 0 0 1 0 64h-277.333334a32 32 0 0 1 0-64H448v-42.666667H170.666667a85.333333 85.333333 0 0 1-85.333334-85.333333V256a85.333333 85.333333 0 0 1 85.333334-85.333333h682.666666zM330.666667 469.333333a32 32 0 0 0-32 32v64a32 32 0 0 0 64 0v-64a32 32 0 0 0-32-32z m170.666666-64a32 32 0 0 0-32 32v128a32 32 0 0 0 64 0v-128a32 32 0 0 0-32-32z m170.666667-64a32 32 0 0 0-32 32v192a32 32 0 0 0 64 0v-192a32 32 0 0 0-32-32z" fill="#ffffff" p-id="3426"></path></svg>