<?xml version="1.0" encoding="utf-8"?>
<!-- Generator: Adobe Illustrator 25.2.1, SVG Export Plug-In . SVG Version: 6.00 Build 0)  -->
<svg version="1.1" id="图层_1" xmlns="http://www.w3.org/2000/svg" xmlns:xlink="http://www.w3.org/1999/xlink" x="0px" y="0px"
	 viewBox="0 0 26 26" style="enable-background:new 0 0 26 26;" xml:space="preserve">
<style type="text/css">
	.st0{clip-path:url(#SVGID_2_);}
	.st1{fill:none;stroke:#FFFFFF;stroke-width:1.3094;}
</style>
<desc>Created with Pixso.</desc>
<g id="Linear__x2F__School__x2F__Bookmark">
	<g>
		<defs>
			<path id="SVGID_1_" d="M4.47,0h17.06C24,0,26,2,26,4.47v17.06C26,24,24,26,21.53,26H4.47C2,26,0,24,0,21.53V4.47C0,2,2,0,4.47,0z
				"/>
		</defs>
		<clipPath id="SVGID_2_">
			<use xlink:href="#SVGID_1_"  style="overflow:visible;"/>
		</clipPath>
		<g class="st0">
			<g id="Vector">
				<path class="st1" d="M20.8,16.55c0,2.68,0,4.03-0.64,4.61c-0.3,0.28-0.69,0.46-1.09,0.5c-0.86,0.1-1.85-0.79-3.85-2.55
					c-0.88-0.78-1.32-1.17-1.84-1.27c-0.25-0.05-0.51-0.05-0.76,0c-0.51,0.1-0.95,0.49-1.84,1.27c-2,1.77-3,2.65-3.85,2.55
					c-0.41-0.05-0.79-0.22-1.09-0.5C5.2,20.57,5.2,19.23,5.2,16.55v-4.33c0-3.72,0-5.58,1.14-6.73C7.48,4.33,9.32,4.33,13,4.33
					c3.68,0,5.52,0,6.66,1.15s1.14,3.01,1.14,6.73V16.55z"/>
			</g>
		</g>
	</g>
</g>
</svg>
