<?xml version="1.0" standalone="no"?><!DOCTYPE svg PUBLIC "-//W3C//DTD SVG 1.1//EN" "http://www.w3.org/Graphics/SVG/1.1/DTD/svg11.dtd"><svg t="1682388474002" class="icon" viewBox="0 0 1024 1024" version="1.1" xmlns="http://www.w3.org/2000/svg" p-id="7935" xmlns:xlink="http://www.w3.org/1999/xlink" width="200" height="200"><path d="M694.857143 121.904762c75.751619 0 137.142857 61.635048 137.142857 137.679238s-61.391238 137.679238-137.142857 137.679238a136.46019 136.46019 0 0 1-97.596953-40.96l-95.524571 71.948191c6.38781 18.310095 9.99619 37.936762 10.24 58.368l157.013333 52.540952a114.054095 114.054095 0 0 1 94.427429-50.102857c63.146667 0 114.297905 51.370667 114.297905 114.736762s-51.175619 114.736762-114.297905 114.736762c-62.780952 0-113.737143-50.834286-114.273524-113.737143l-0.048762 0.243809-149.284571-49.93219a183.905524 183.905524 0 0 1-47.250286 69.412571l70.777905 94.72a91.599238 91.599238 0 0 1 102.936381 91.062857A91.599238 91.599238 0 0 1 534.869333 902.095238a91.599238 91.599238 0 0 1-91.428571-91.794286c0-21.479619 7.363048-41.252571 19.699809-56.905142l-69.193142-92.623239a181.808762 181.808762 0 0 1-64.780191 11.849143c-100.985905 0-182.857143-82.16381-182.857143-183.588571 0-101.376 81.871238-183.56419 182.857143-183.564191 54.979048 0 104.301714 24.380952 137.801143 62.902858l95.719619-72.045715a138.313143 138.313143 0 0 1-4.949333-36.742095C557.714286 183.53981 619.105524 121.904762 694.857143 121.904762z m-160.012191 665.453714a22.918095 22.918095 0 0 0-22.844952 22.942476c0 12.678095 10.24 22.942476 22.869333 22.942477a22.918095 22.918095 0 0 0 22.844953-22.918096 22.918095 22.918095 0 0 0-22.869334-22.966857z m228.571429-229.473524a45.81181 45.81181 0 0 0-45.714286 45.909334c0 25.35619 20.48 45.884952 45.714286 45.884952a45.81181 45.81181 0 0 0 45.714286-45.884952c0-25.35619-20.455619-45.909333-45.689905-45.909334zM329.142857 374.296381c-63.122286 0-114.297905 51.395048-114.297905 114.761143 0 63.366095 51.2 114.736762 114.297905 114.736762 63.122286 0 114.297905-51.370667 114.297905-114.736762 0-63.390476-51.2-114.736762-114.297905-114.736762z m365.714286-183.53981a68.705524 68.705524 0 0 0-68.583619 68.827429c0 38.034286 30.72 68.85181 68.583619 68.85181a68.705524 68.705524 0 0 0 68.583619-68.85181c0-38.034286-30.72-68.827429-68.583619-68.827429z" p-id="7936" fill="#2969FF"></path></svg>