<?xml version="1.0" standalone="no"?><!DOCTYPE svg PUBLIC "-//W3C//DTD SVG 1.1//EN" "http://www.w3.org/Graphics/SVG/1.1/DTD/svg11.dtd"><svg t="1679091307326" class="icon" viewBox="0 0 1024 1024" version="1.1" xmlns="http://www.w3.org/2000/svg" p-id="7775" xmlns:xlink="http://www.w3.org/1999/xlink" width="200" height="200"><path d="M724.528762 585.142857a152.137143 152.137143 0 0 1 138.727619 214.723048l88.502857 88.527238-51.712 51.736381-82.456381-82.480762A152.137143 152.137143 0 1 1 724.528762 585.142857z m-393.094095 25.112381c21.333333 13.360762 44.373333 24.234667 68.754285 32.231619L219.428571 853.333333h328.582096v73.142857H219.428571a73.142857 73.142857 0 0 1-55.539809-120.734476l167.545905-195.486476zM724.528762 658.285714a78.994286 78.994286 0 1 0 0 157.988572 78.994286 78.994286 0 0 0 0-157.988572z m-225.28-560.761904c134.656 0 243.809524 109.153524 243.809524 243.809523s-109.153524 243.809524-243.809524 243.809524-243.809524-109.153524-243.809524-243.809524 109.153524-243.809524 243.809524-243.809523z m0 73.142857a170.666667 170.666667 0 1 0 0 341.333333 170.666667 170.666667 0 0 0 0-341.333333z" p-id="7776"></path></svg>