<?xml version="1.0" encoding="utf-8"?>
<!-- Generator: Adobe Illustrator 25.2.1, SVG Export Plug-In . SVG Version: 6.00 Build 0)  -->
<svg version="1.1" id="图层_1" xmlns="http://www.w3.org/2000/svg" xmlns:xlink="http://www.w3.org/1999/xlink" x="0px" y="0px"
	 viewBox="0 0 26 26" style="enable-background:new 0 0 26 26;" xml:space="preserve">
<style type="text/css">
	.st0{clip-path:url(#SVGID_2_);}
	.st1{fill-rule:evenodd;clip-rule:evenodd;fill:#1F2226;fill-opacity:0.5;}
</style>
<desc>Created with Pixso.</desc>
<g id="Linear__x2F__Search__x2F__Magnifer">
	<g>
		<defs>
			<rect id="SVGID_1_" width="26" height="26"/>
		</defs>
		<clipPath id="SVGID_2_">
			<use xlink:href="#SVGID_1_"  style="overflow:visible;"/>
		</clipPath>
		<g class="st0">
			<g id="合并">
				<path class="st1" d="M12.57,3.68c1.2,0,2.36,0.23,3.46,0.7c1.06,0.45,2,1.08,2.82,1.9c0.82,0.82,1.45,1.76,1.9,2.82
					c0.47,1.1,0.7,2.25,0.7,3.46c0,1.2-0.23,2.36-0.7,3.46c-0.3,0.71-0.68,1.36-1.14,1.96h2.06c0.36,0,0.65,0.29,0.65,0.65
					c0,0.36-0.29,0.65-0.65,0.65h-3.03c-0.07,0-0.15-0.01-0.21-0.03c-0.71,0.63-1.51,1.13-2.4,1.5c-1.1,0.47-2.25,0.7-3.46,0.7
					c-1.2,0-2.36-0.23-3.46-0.7c-1.06-0.45-2-1.08-2.82-1.9c-0.82-0.82-1.45-1.76-1.9-2.82c-0.47-1.1-0.7-2.25-0.7-3.46
					c0-1.2,0.23-2.36,0.7-3.46c0.45-1.06,1.08-2,1.9-2.82c0.82-0.82,1.76-1.45,2.82-1.9C10.21,3.92,11.36,3.68,12.57,3.68z
					 M12.57,4.98c-1.03,0-2.01,0.2-2.95,0.6C8.71,5.96,7.9,6.5,7.2,7.2c-0.7,0.7-1.24,1.5-1.63,2.41c-0.4,0.94-0.6,1.92-0.6,2.95
					s0.2,2.01,0.6,2.95c0.38,0.91,0.93,1.71,1.63,2.41c0.7,0.7,1.5,1.24,2.41,1.63c0.94,0.4,1.92,0.6,2.95,0.6s2.01-0.2,2.95-0.6
					c0.91-0.38,1.71-0.93,2.41-1.63c0.7-0.7,1.24-1.5,1.63-2.41c0.4-0.94,0.6-1.92,0.6-2.95s-0.2-2.01-0.6-2.95
					c-0.38-0.91-0.93-1.71-1.63-2.41c-0.7-0.7-1.5-1.24-2.41-1.63C14.58,5.18,13.6,4.98,12.57,4.98z"/>
			</g>
		</g>
	</g>
</g>
</svg>
